<svg width="162" height="54" viewBox="0 0 162 54" fill="none" xmlns="http://www.w3.org/2000/svg">
<g clip-path="url(#clip0_3888_156451)">
<path d="M73.4945 22.9258H77.4776L72.1481 36.5547H68.0248L62.6953 22.9258H66.6784L70.0724 32.466L73.4945 22.9258Z" fill="#10121F"/>
<path d="M81.0127 21.2901C80.4143 21.2901 79.8908 21.0811 79.442 20.6632C79.0119 20.2269 78.7969 19.7182 78.7969 19.1367C78.7969 18.5552 79.0119 18.0464 79.442 17.6102C79.8908 17.1741 80.4143 16.9561 81.0127 16.9561C81.6299 16.9561 82.1535 17.1741 82.5836 17.6102C83.0324 18.0464 83.2568 18.5552 83.2568 19.1367C83.2568 19.7182 83.0324 20.2269 82.5836 20.6632C82.1535 21.0811 81.6299 21.2901 81.0127 21.2901ZM79.2175 36.5545V22.9255H82.836V36.5545H79.2175Z" fill="#10121F"/>
<path d="M92.827 36.9361C90.7139 36.9361 88.9468 36.2456 87.5255 34.8646C86.1231 33.4835 85.4219 31.7754 85.4219 29.7401C85.4219 27.7048 86.1231 25.9967 87.5255 24.6156C88.9468 23.2345 90.7139 22.5439 92.827 22.5439C94.1921 22.5439 95.4357 22.862 96.5576 23.498C97.6796 24.134 98.5304 24.9881 99.1102 26.0602L95.9966 27.8321C95.7162 27.2687 95.286 26.8234 94.7064 26.4964C94.1454 26.1693 93.5096 26.0058 92.799 26.0058C91.7144 26.0058 90.8168 26.3601 90.1062 27.0688C89.3955 27.7594 89.0402 28.6497 89.0402 29.7401C89.0402 30.8122 89.3955 31.7027 90.1062 32.4114C90.8168 33.1018 91.7144 33.4471 92.799 33.4471C93.5283 33.4471 94.1734 33.2926 94.7344 32.9838C95.3141 32.6566 95.7442 32.2115 96.0247 31.6481L99.1662 33.3927C98.5492 34.4648 97.6796 35.3279 96.5576 35.9821C95.4357 36.6181 94.1921 36.9361 92.827 36.9361Z" fill="#10121F"/>
<path d="M111.521 22.9256H115.14V36.5546H111.521V34.9463C110.436 36.2729 108.912 36.9361 106.949 36.9361C105.079 36.9361 103.471 36.2456 102.124 34.8646C100.797 33.4653 100.133 31.7571 100.133 29.7401C100.133 27.723 100.797 26.0239 102.124 24.6428C103.471 23.2436 105.079 22.5439 106.949 22.5439C108.912 22.5439 110.436 23.2073 111.521 24.5338V22.9256ZM104.845 32.5203C105.574 33.229 106.5 33.5834 107.622 33.5834C108.744 33.5834 109.67 33.229 110.399 32.5203C111.147 31.7935 111.521 30.8667 111.521 29.7401C111.521 28.6134 111.147 27.6958 110.399 26.9871C109.67 26.2601 108.744 25.8967 107.622 25.8967C106.5 25.8967 105.574 26.2601 104.845 26.9871C104.116 27.6958 103.751 28.6134 103.751 29.7401C103.751 30.8667 104.116 31.7935 104.845 32.5203Z" fill="#10121F"/>
<path d="M122.04 25.2701C122.376 24.3978 122.928 23.7436 123.695 23.3075C124.48 22.8714 125.35 22.6533 126.303 22.6533V26.5785C125.2 26.4512 124.209 26.6693 123.331 27.2326C122.47 27.796 122.04 28.7318 122.04 30.0402V36.5549H118.422V22.9259H122.04V25.2701Z" fill="#10121F"/>
<path d="M130.216 21.2901C129.618 21.2901 129.094 21.0811 128.646 20.6632C128.215 20.2269 128 19.7182 128 19.1367C128 18.5552 128.215 18.0464 128.646 17.6102C129.094 17.1741 129.618 16.9561 130.216 16.9561C130.834 16.9561 131.357 17.1741 131.787 17.6102C132.236 18.0464 132.461 18.5552 132.461 19.1367C132.461 19.7182 132.236 20.2269 131.787 20.6632C131.357 21.0811 130.834 21.2901 130.216 21.2901ZM128.422 36.5545V22.9255H132.04V36.5545H128.422Z" fill="#10121F"/>
<path d="M144.606 22.9258H148.225V36.5547H144.606V35.0283C143.728 36.3003 142.334 36.9363 140.427 36.9363C138.893 36.9363 137.622 36.4366 136.612 35.4371C135.621 34.4376 135.125 33.0566 135.125 31.2939V22.9258H138.743V30.8578C138.743 31.7664 138.996 32.466 139.501 32.9566C140.006 33.4291 140.678 33.6654 141.521 33.6654C142.456 33.6654 143.204 33.3837 143.764 32.8204C144.326 32.257 144.606 31.412 144.606 30.2853V22.9258Z" fill="#10121F"/>
<path d="M154.761 26.7962C154.761 27.1596 155.004 27.4595 155.49 27.6958C155.995 27.9138 156.603 28.1137 157.313 28.2954C158.024 28.459 158.734 28.677 159.445 28.9495C160.155 29.204 160.754 29.6401 161.24 30.258C161.744 30.8758 161.997 31.6481 161.997 32.5749C161.997 33.9741 161.455 35.0553 160.371 35.8186C159.304 36.5636 157.967 36.9361 156.36 36.9361C153.479 36.9361 151.516 35.8549 150.469 33.6925L153.61 31.9752C154.022 33.1564 154.938 33.747 156.36 33.747C157.65 33.747 158.295 33.3563 158.295 32.5749C158.295 32.2115 158.043 31.9207 157.538 31.7027C157.051 31.4664 156.453 31.2574 155.743 31.0757C155.031 30.894 154.321 30.6668 153.61 30.3943C152.9 30.1217 152.292 29.6946 151.787 29.1132C151.301 28.5134 151.058 27.7684 151.058 26.878C151.058 25.5333 151.563 24.4793 152.573 23.7161C153.601 22.9347 154.873 22.5439 156.387 22.5439C157.528 22.5439 158.565 22.7984 159.501 23.3072C160.436 23.7978 161.174 24.5065 161.717 25.4333L158.631 27.0688C158.183 26.1421 157.435 25.6786 156.387 25.6786C155.92 25.6786 155.527 25.7785 155.209 25.9785C154.91 26.1784 154.761 26.451 154.761 26.7962Z" fill="#10121F"/>
<path d="M36.5172 32.2041C36.0932 30.966 35.3512 30.0375 33.7612 29.1089C34.8212 28.7994 35.5632 28.593 35.9873 28.3866C35.6693 27.5613 35.3512 27.1485 34.6092 26.6327C36.5172 23.0215 38.8492 21.3707 38.6373 19.9263C37.4712 20.5454 36.3053 22.712 34.1852 23.6406C34.6092 20.1326 36.1992 18.0692 36.1992 16.831C36.1992 16.212 35.4572 14.9739 34.8212 14.1484C31.3231 19.204 29.2031 25.2914 29.2031 31.8946C29.2031 36.228 30.1571 40.4581 31.7472 44.2756C32.8072 44.9979 33.6551 45.6169 34.5032 46.8549C34.3972 44.0693 35.5632 43.0375 34.6092 37.4661C35.0332 37.6725 35.4572 37.982 35.8812 37.982C35.9873 36.4343 35.8812 34.4739 34.8212 31.585C35.3512 31.585 35.6693 31.7914 36.5172 32.2041Z" fill="url(#paint0_linear_3888_156451)"/>
<path d="M11.7868 37.5824C9.75463 38.2748 8.12886 39.2637 6.80792 40.5495C4.16604 36.6924 2.54027 31.9451 2.54027 27C2.54027 13.4505 13.819 2.47253 27.7397 2.47253C41.6604 2.47253 52.9392 13.4505 52.9392 27C52.9392 38.0769 45.3184 47.4725 34.954 50.5385V48.3626C35.1573 48.3626 35.4621 48.5605 35.8686 49.0549C36.3767 46.0879 36.4783 43.022 36.0718 39.8572C36.9863 40.2528 37.6976 40.9451 38.3072 41.7363C38.5105 39.3627 38.0024 36.7912 36.6815 34.2198C37.4943 34.5165 38.1041 35.1099 38.612 36C38.8153 33.8242 38.5105 31.9451 36.6815 30.1648C37.2912 30.2638 37.6976 30.6594 38.612 31.4506C38.1041 28.8791 36.4783 28.3846 36.4783 26.6044C36.4783 23.8352 41.9652 21.7582 39.1201 18.3956C38.2056 19.3846 37.2912 20.2747 36.275 20.967C36.6815 19.3846 37.596 17.5055 37.596 16.6154C37.596 15.6264 34.954 12.2637 34.5476 11.7692C34.4461 11.6704 33.938 11.5714 33.5316 11.6704C32.3122 11.7692 32.7187 12.5604 32.2106 13.0549C31.4993 13.9451 30.4832 15.033 29.7719 16.1208C29.2639 16.7143 28.959 17.6044 28.451 17.7033C20.8302 18.8901 20.119 25.6153 12.803 24.9231C13.1078 27.0989 14.9367 28.4835 17.2739 29.4726C16.1561 32.4395 13.5142 35.011 10.0595 37.3846C10.6691 37.3846 11.1772 37.4836 11.7868 37.5824ZM0 27C0 41.934 12.3965 54 27.7397 54C43.0829 54 55.4794 41.934 55.4794 27C55.4794 12.066 43.0829 0 27.7397 0C12.3965 0 0 12.066 0 27ZM26.5204 26.2088C25.6059 26.3077 25.4027 26.4065 24.4882 26.7033C24.5898 24.5274 27.4349 21.7582 30.1784 18.6923C31.4993 17.2088 33.2267 14.044 33.8364 14.044C34.2428 14.044 35.9702 16.4176 35.9702 17.3076C35.9702 18.4945 34.4461 20.4725 34.0396 23.8352C36.0718 22.945 37.0879 20.8681 38.3072 20.2747C38.612 21.7582 36.275 23.3406 34.4461 26.8023C35.1573 27.3956 35.4621 27.7912 35.7669 28.4835C35.3605 28.6813 34.6492 28.8791 33.6332 29.1759C35.259 30.0659 35.9702 31.055 36.275 32.1429C35.5638 31.7472 35.1573 31.6483 34.5476 31.5495C35.5638 34.2198 35.6654 36.1978 35.5638 37.6813C35.1573 37.6813 34.6492 37.4836 34.3444 37.1868C35.259 42.5275 34.1412 43.5164 34.2428 46.1869C33.4299 45 32.617 44.3076 31.601 43.7143C30.8896 46.3846 29.7719 47.5714 29.0607 48.2637C29.6703 44.5055 29.5688 41.1428 27.943 37.7802C27.4349 38.2748 27.3333 38.8681 27.0285 39.5604C24.9963 38.1758 24.1834 36.0989 25.4027 32.3407C24.4882 33.033 24.1834 33.6263 23.6753 34.2198C23.0656 29.6703 24.4882 27.989 26.5204 26.2088Z" fill="#10121F"/>
</g>
<defs>
<linearGradient id="paint0_linear_3888_156451" x1="32.5222" y1="47.3915" x2="36.7938" y2="14.8134" gradientUnits="userSpaceOnUse">
<stop stop-color="#4C4EF0"/>
<stop offset="1" stop-color="#4C4EF0" stop-opacity="0"/>
</linearGradient>
<clipPath id="clip0_3888_156451">
<rect width="162" height="54" fill="white"/>
</clipPath>
</defs>
</svg>
